<?xml version="1.0" standalone="no"?>
<!DOCTYPE svg PUBLIC "-//W3C//DTD SVG 20010904//EN"
 "http://www.w3.org/TR/2001/REC-SVG-20010904/DTD/svg10.dtd">
<svg version="1.0" xmlns="http://www.w3.org/2000/svg"
 width="700.000000pt" height="700.000000pt" viewBox="0 0 700.000000 700.000000"
 preserveAspectRatio="xMidYMid meet">
<metadata>
Created by potrace 1.14, written by Peter Selinger 2001-2017
</metadata>
<g transform="translate(0.000000,700.000000) scale(0.100000,-0.100000)"
fill="#000000" stroke="none">
<path d="M711 6989 c-268 -53 -500 -230 -623 -474 -14 -27 -39 -88 -54 -135
l-29 -85 0 -2795 0 -2795 28 -85 c97 -290 297 -490 587 -587 l85 -28 2795 0
2795 0 85 28 c290 97 490 297 587 587 l28 85 0 2795 0 2795 -28 85 c-97 290
-297 490 -587 587 l-85 28 -2770 1 c-1548 1 -2790 -2 -2814 -7z m2609 -1871
c61 -31 90 -77 90 -142 0 -60 -25 -107 -72 -136 -32 -19 -52 -20 -551 -20
-584 0 -577 1 -597 -67 -8 -27 -10 -303 -8 -951 l3 -914 28 -24 28 -24 1259 0
1259 0 28 24 28 24 5 459 c4 339 8 464 17 480 33 57 117 91 181 74 46 -13 99
-65 112 -112 13 -45 13 -860 0 -930 -25 -133 -128 -263 -247 -311 l-58 -23
-582 -3 -583 -3 0 -169 0 -169 363 -3 c410 -3 396 -1 438 -86 38 -77 10 -169
-64 -210 -30 -16 -95 -17 -897 -17 -802 0 -867 1 -897 17 -74 41 -102 133 -64
210 42 85 28 83 439 86 l362 3 0 169 0 170 -558 0 c-598 0 -628 2 -711 52
-101 60 -179 170 -200 283 -15 78 -15 1870 -1 1945 31 163 163 298 322 329 24
5 277 9 563 10 l521 1 44 -22z m879 12 c47 -13 99 -66 112 -112 19 -74 0 -110
-134 -245 l-121 -123 121 -122 c97 -99 123 -131 132 -165 21 -76 -11 -148 -79
-183 -47 -24 -88 -25 -137 -5 -43 18 -353 320 -394 384 -33 51 -39 114 -15
159 24 44 377 390 416 406 42 18 55 19 99 6z m536 -20 c17 -10 109 -99 206
-197 265 -267 265 -260 -9 -535 -102 -103 -201 -195 -220 -204 -98 -46 -222
34 -222 143 0 24 6 56 14 71 8 15 67 79 130 142 l116 115 -114 115 c-122 123
-146 158 -146 215 0 128 135 202 245 135z"/>
</g>
</svg>
